# xmcd CD database file
#
# Track frame offsets:
#	150
#	15097
#	28755
#	44640
#	63240
#	80229
#	100060
#	118600
#	135032
#	152410
#	168630
#	191970
#
# Disc length: 2776 seconds
#
# Revision: 0
# Processed by: cddbd v1.5.1PL0 Copyright (c) Steve Scherf et al.
# Submitted via: CDex 1.50beta9
#
DISCID=940ad60c
DTITLE=Clever Jatobá - Rural Country
DYEAR=2000
DGENRE=Country
TTITLE0=Pra ser feliz
TTITLE1=Vaqueiro Apaixonado
TTITLE2=Quero sentir
TTITLE3=É ter você
TTITLE4=Quadrilha do Pum
TTITLE5=Eterna solidão
TTITLE6=Um sonho de amor
TTITLE7=Nas asas do Zabelê
TTITLE8=Pular fogueira
TTITLE9=Eu te i love you Demais
TTITLE10=Quero Sentir and Pra ser feliz
TTITLE11=Bailão Country
EXTD=YEAR: 2000
EXTT0=
EXTT1=
EXTT2=
EXTT3=
EXTT4=
EXTT5=
EXTT6=
EXTT7=
EXTT8=
EXTT9=
EXTT10=
EXTT11=
PLAYORDER=
